<?xml version="1.0" encoding="UTF-8" standalone="no"?><!DOCTYPE svg PUBLIC "-//W3C//DTD SVG 1.1//EN" "http://www.w3.org/Graphics/SVG/1.1/DTD/svg11.dtd"><svg width="100%" height="100%" viewBox="0 0 2000 2000" version="1.1" xmlns="http://www.w3.org/2000/svg" xmlns:xlink="http://www.w3.org/1999/xlink" xml:space="preserve" xmlns:serif="http://www.serif.com/" style="fill-rule:evenodd;clip-rule:evenodd;stroke-linecap:round;stroke-linejoin:round;stroke-miterlimit:1.5;"><path d="M1020.946,1027.351c5.722,23.32 -6.091,48.061 -28.881,57.828c-3.264,1.399 -6.595,2.423 -9.945,3.091c-0.563,9.915 -1.223,20.184 -1.984,30.83c-1.439,20.15 -14.656,36.669 -32.433,43.304c-10.269,14.808 -28.22,23.557 -47.326,21.168c-6.235,-0.779 -57.797,-7.474 -83.086,-14.919c-16.752,-4.932 -27.842,-12.693 -32.91,-17.761c-1.603,-1.603 -3.088,-3.207 -4.463,-4.811c-212.817,2.01 -324.705,-126.852 -345.179,-150.251c-31.953,-36.518 -27.138,-79.94 -14.463,-110.014c10.221,-24.251 26.592,-38.811 29.62,-40.829c40.941,-27.294 101.432,-25.937 130.813,-23.266c4.371,-2.585 9.179,-5.228 14.353,-7.859c7.117,-3.618 16.822,-8.628 26.89,-13.853c5.021,-17.424 14.14,-31.136 30.719,-41.249c-3.845,-8.385 -6.222,-17.051 -7.793,-26.034c-19.461,-20.024 -49.51,-23.732 -73.822,-29.02c-37.419,-8.139 -67.782,-19.568 -82.798,-35.835c-9.782,-10.598 -15.549,-24.315 -15.126,-41.119c0.042,-1.664 0.311,-3.599 0.76,-5.73c-4.716,-4.018 -9.407,-8.433 -11.638,-11.771c-5.378,-8.044 -8.247,-16.58 -9.126,-25.088c-1.005,-9.733 -0.538,-21.269 6.196,-32.665c1.269,-18.236 12.494,-34.264 28.826,-41.849c6.638,-10.381 17.098,-18.347 29.984,-21.568l0.307,-0.077c4.144,-1.784 8.563,-3.02 13.159,-3.624c17.793,-5.34 30.205,-10.857 41.054,-14.279c27.032,-8.527 48.636,-12.001 85.231,5.711c27.743,-9.565 57.985,-7.192 89.774,4.499c35.581,13.086 74.39,39.692 112.857,58.925c22.216,11.108 32.553,36.57 25.398,59.546c11.355,-3.005 23.807,-2.049 35.129,3.612c12.367,6.183 48.782,33.531 52.862,36.669c9.294,7.149 15.78,17.338 18.324,28.785c2.937,13.218 2.629,13.152 10.298,23.89c16.04,22.456 10.831,53.709 -11.625,69.749c-0.515,0.368 -1.035,0.725 -1.559,1.07c11.926,30.057 21.044,57.678 21.994,64.33c7.937,55.561 11.4,86.098 13.079,107.274c1.982,13.193 2.895,24.826 1.992,41.282c0.235,6.935 0.54,14.47 1.124,23.817c0.637,10.19 -1.831,19.861 -6.589,28.091Zm-546.15,-410.032l-2.412,-3.106c0.401,0.802 1.246,1.988 2.34,3.371l0.072,-0.266Z" style="fill:#ebebeb;"/><path d="M1230.263,1576.064c-278.947,178.947 -128.947,247.368 -7.895,239.474c121.053,-7.895 342.105,-202.632 339.474,-273.684c-2.632,-71.053 -39.474,-276.316 -131.579,-236.842c-92.105,39.474 -200,271.053 -200,271.053" style="fill:none;stroke:#000;stroke-width:1px;"/></svg>